<svg height="486pt" viewBox="-58 0 486 486.51" width="486pt" xmlns="http://www.w3.org/2000/svg"><path d="m363.242188 439.640625c1.292968 5.125.152343 10.5625-3.09375 14.734375-3.25 4.171875-8.238282 6.613281-13.527344 6.613281h-126.769532c-5.285156 0-10.277343-2.4375-13.523437-6.609375-3.25-4.167968-4.390625-9.605468-3.097656-14.730468l28.851562-114.238282.398438.101563h101l.800781-.203125zm0 0" fill="#00efd1"/><path d="m326.230469 291.511719v-63.511719c0-2.84375-1.410157-5.5-3.765625-7.09375-2.351563-1.59375-5.34375-1.917969-7.984375-.867188l-24.890625 9.929688c-4.074219 1.621094-8.613282 1.621094-12.6875 0l-24.941406-9.929688c-2.640626-1.050781-5.628907-.726562-7.980469.867188-2.351563 1.59375-3.761719 4.253906-3.757813 7.09375v68.378906c.003906 3.84375-1.226562 7.589844-3.511718 10.679688-2.957032 4.109375-7.589844 6.683594-12.640626 7.019531-.359374.023437-.730468.042969-1.097656.042969-9.53125 0-17.257812-7.722656-17.261718-17.25v-79.019532c-.910157-9.140624 2.085937-18.242187 8.242187-25.054687 6.160156-6.816406 14.914063-10.710937 24.097656-10.726563h90.390625c9.1875.011719 17.9375 3.90625 24.097656 10.722657 6.160157 6.816406 9.148438 15.917969 8.230469 25.058593v79c.003907 4.6875-1.902343 9.175782-5.28125 12.433594-3.375 3.253906-7.929687 4.996094-12.617187 4.824219-5.222656-.203125-10.0625-2.789063-13.128906-7.019531-2.28125-3.082032-3.511719-6.816406-3.511719-10.648438zm0 0" fill="#edb288"/><path d="m343.371094 83.328125c5.871094 30.261719.871094 65.023437-17.398438 98.742187h-87.921875c-9.183593.015626-17.9375 3.910157-24.097656 10.726563-6.15625 6.8125-9.152344 15.914063-8.242187 25.054687v68.609376h-.019532c-5.230468 2.410156-10.628906 4.742187-16.199218 7-2.570313 1.066406-5.460938 1.066406-8.03125 0-6.519532-2.582032-12.808594-5.277344-18.871094-8.089844h-.167969v-67.519532c.914063-9.140624-2.078125-18.242187-8.238281-25.054687-6.15625-6.816406-14.90625-10.710937-24.09375-10.726563h-20.347656l-.25-.550781-.179688.550781h-48l-.171875-.550781-.269531.550781h-16.160156c-17.988282-33.589843-22.96875-68.339843-17.128907-98.742187 8.828125-46.597656 41.378907-76.328125 83.558594-76.328125 23.710937 0 49.019531 9.640625 74.332031 28.519531 24.910156-18.078125 50.628906-27.71875 73.929688-27.71875 42.1875 0 74.730468 29.730469 83.96875 75.527344zm-32.359375 53.28125v-11.550781c0-15.941406-12.925781-28.863282-28.867188-28.863282-15.941406 0-28.863281 12.921876-28.863281 28.863282v11.550781c0 15.941406 12.921875 28.867187 28.863281 28.867187 15.941407 0 28.867188-12.925781 28.867188-28.867187zm-198.351563 0v-11.550781c0-15.941406-12.921875-28.863282-28.863281-28.863282s-28.867187 12.921876-28.867187 28.863282v11.550781c0 15.941406 12.925781 28.867187 28.867187 28.867187s28.863281-12.925781 28.863281-28.867187zm0 0" fill="#fedb41"/><path d="m329.679688 307.140625 4.601562 18.167969-.800781.203125h-101l-.398438-.101563 4.628907-18.351562c2.285156-3.089844 3.515624-6.835938 3.511718-10.679688v-4.867187h86.007813v4.929687c0 3.832032 1.230469 7.566406 3.511719 10.648438zm0 0" fill="#00efd1"/><path d="m326.230469 228v63.511719h-86.007813v-63.511719c-.003906-2.839844 1.40625-5.5 3.757813-7.09375 2.351562-1.59375 5.339843-1.917969 7.980469-.867188l24.941406 9.929688c4.074218 1.621094 8.613281 1.621094 12.6875 0l24.890625-9.929688c2.640625-1.050781 5.632812-.726562 7.984375.867188 2.355468 1.59375 3.765625 4.25 3.765625 7.09375zm0 0" fill="#00acea"/><path d="m311.011719 125.058594v11.550781c0 15.941406-12.925781 28.867187-28.867188 28.867187-15.941406 0-28.863281-12.925781-28.863281-28.867187v-11.550781c0-15.941406 12.921875-28.863282 28.863281-28.863282 15.941407 0 28.867188 12.921876 28.867188 28.863282zm0 0" fill="#f7caa5"/><path d="m44.710938 182.070312h16.160156l-14.789063 30.140626 11.867188 10.898437-1.949219 13.960937 28.890625 20.488282 30.601563-20.488282-3.671876-13.960937 11.878907-10.898437-13.957031-30.140626h20.347656c9.1875.015626 17.9375 3.910157 24.09375 10.726563 6.160156 6.8125 9.152344 15.914063 8.238281 25.054687v96.148438c0 9.539062-7.734375 17.273438-17.277344 17.273438-9.539062 0-17.273437-7.734376-17.273437-17.273438v-21.109375l-.429688 13.121094h-85.582031v7.507812c0 9.539063-7.519531 17.628907-17.046875 17.742188h-.191406c-9.53125 0-17.257813-7.722657-17.269532-17.25v-96.160157c-.910156-9.144531 2.085938-18.246093 8.246094-25.058593 6.160156-6.816407 14.917969-10.710938 24.101563-10.722657zm0 0" fill="#00acea"/><path d="m84.972656 460.320312c0 10.199219-8.171875 18.519532-18.371094 18.703126-10.199218.183593-18.664062-7.839844-19.03125-18.035157l-5.058593-154.976562h84.929687l-5.070312 154.976562c-.367188 10.195313-8.832032 18.21875-19.027344 18.035157-10.199219-.183594-18.371094-8.503907-18.371094-18.703126zm0 0" fill="#00efd1"/><path d="m109.742188 182.070312 13.957031 30.140626-11.878907 10.898437 3.671876 13.960937-30.601563 20.488282 24.421875-75.488282zm0 0" fill="#00efd1"/><path d="m112.660156 125.058594v11.550781c0 15.941406-12.921875 28.867187-28.863281 28.867187s-28.867187-12.925781-28.867187-28.867187v-11.550781c0-15.941406 12.925781-28.863282 28.867187-28.863282s28.863281 12.921876 28.863281 28.863282zm0 0" fill="#f7caa5"/><path d="m109.3125 182.070312-24.421875 75.488282-23.578125-75.488282zm0 0" fill="#d4e1f4"/><path d="m61.3125 182.070312 23.578125 75.488282-28.890625-20.488282 1.949219-13.960937-11.867188-10.898437 14.789063-30.140626zm0 0" fill="#00efd1"/><g fill="#083863"><path d="m83.480469 89.199219c-19.824219.007812-35.914063 16.035156-36 35.859375v11.550781c0 19.882813 16.117187 36 36 36 19.882812 0 36-16.117187 36-36v-11.550781c-.089844-19.820313-16.175781-35.847656-36-35.859375zm22 47.410156c.027343 12.054687-9.722657 21.851563-21.78125 21.871094-12.144531.023437-22.050781-9.726563-22.21875-21.871094v-11.550781c0-12.148438 9.851562-22 22-22 12.152343 0 22 9.851562 22 22zm0 0"/><path d="m282.386719 172.480469c19.84375-.007813 35.964843-16.027344 36.09375-35.871094v-11.550781c0-19.878906-16.117188-36-36-36-19.882813 0-36 16.121094-36 36v11.550781c.023437 19.8125 16.089843 35.863281 35.902343 35.871094zm-21.90625-47.421875c0-12.148438 9.851562-22 22-22 12.152343 0 22 9.851562 22 22v11.550781c-.121094 12.117187-9.980469 21.875-22.097657 21.871094-12.082031-.007813-21.878906-9.789063-21.902343-21.871094zm0 0"/><path d="m340.390625 320.910156c.738281.09375 1.480469.164063 2.230469.191406.300781.011719.601562.015626.894531.015626 6.40625-.015626 12.539063-2.585938 17.035156-7.144532 4.5-4.554687 6.996094-10.71875 6.929688-17.121094v-78.664062c1.925781-19.824219-11.285157-37.957031-30.75-42.195312 14.460937-30.84375 19.285156-63.863282 13.429687-94.046876-9.945312-49.292968-45.5625-81.144531-90.796875-81.144531-23.546875 0-48.980469 9.007813-73.851562 26.105469-25.210938-17.859375-50.199219-26.90625-74.378907-26.90625-45.5 0-80.992187 32.199219-90.429687 82.011719-5.769531 30.015625-1.164063 62.847656 12.941406 93.519531-19.222656 3.015625-33.394531 19.578125-33.390625 39.039062 0 1.25.226563 2.4375.226563 3.613282v95.832031c-.050781 13.414063 10.730469 24.351563 24.140625 24.496094h.269531c4.078125-.066407 8.066406-1.207031 11.5625-3.300781l4.121094 126.097656c.386719 10.355468 6.953125 19.464844 16.65625 23.101562 9.703125 3.632813 20.636719 1.082032 27.734375-6.46875.175781.191406.351562.375.539062.558594 7.234375 7.238281 18.070313 9.492188 27.59375 5.742188 9.519532-3.75 15.910156-12.789063 16.269532-23.015626l4.121093-125.941406c7.527344 4.125 16.667969 3.976563 24.058594-.394531 7.386719-4.367187 11.921875-12.308594 11.933594-20.890625v-17.929688c3 1.335938 6.25 2.640626 9.433593 3.902344.121094.046875.226563.089844.351563.132813 4.003906 1.542969 8.4375 1.542969 12.4375 0 .144531-.046875.277344-.101563.414063-.152344 2.214843-.902344 4.414062-1.816406 6.601562-2.75.195312 13.257813 10.992188 23.90625 24.253906 23.917969.488282 0 .976563-.019532 1.539063-.050782.5-.03125.988281-.082031 1.480469-.144531l-29.550782 117.011719c-1.84375 7.144531-.226562 14.738281 4.371094 20.511719 4.582031 5.824219 11.625 9.175781 19.039062 9.0625h20.234376c1.050781 4.351562 3.378906 8.292969 6.6875 11.3125 4.734374 4.765625 11.128906 7.519531 17.847656 7.6875h37.410156c11.546875 0 21.289062-8 24.546875-19h20.042969c7.414062.109375 14.457031-3.246094 19.046875-9.070313 4.589843-5.824218 6.199219-13.457031 4.359375-20.640625zm-20.910156-36.398437h-72v-56.511719c-.050781-.5.164062-.992188.5625-1.300781.402343-.300781.9375-.359375 1.394531-.152344l24.90625 9.929687c5.730469 2.292969 12.125 2.292969 17.855469 0l24.878906-9.925781c.527344-.207031 1.121094-.148437 1.597656.160157.476563.265624.78125.753906.808594 1.296874zm-76.28125 25.449219c2.238281-3.433594 3.589843-7.367188 3.929687-11.449219h72.1875c.328125 4.023437 1.640625 7.910156 3.824219 11.308593l2.199219 8.691407h-84.300782zm-138.148438-85.070313 2.398438 9.136719-9.691407 6.488281 12.886719-39.832031 4.554688 9.828125-8.109375 7.4375c-1.914063 1.757812-2.699219 4.429687-2.039063 6.941406zm-20.042969 10.003906-14.175781-45.382812h28.855469zm-22.320312-16.941406-8.015625-7.359375 5.019531-10.230469 12.335938 39.492188-8.5-6.035157 1.359375-9.742187c.320312-2.28125-.503907-4.570313-2.199219-6.125zm40.992188 254.066406c-3.183594.011719-6.242188-1.222656-8.53125-3.4375-2.269532-2.160156-3.585938-5.128906-3.667969-8.261719v-123.808593h-14v123.808593c.050781 3.078126-1.132813 6.046876-3.289063 8.246094-2.152344 2.199219-5.097656 3.441406-8.175781 3.453125-2.996094.003907-5.871094-1.171875-8-3.277343-2.15625-2.003907-3.421875-4.789063-3.511719-7.730469l-4.761718-147.5h70.46875l-4.828126 147.476562c-.230468 6.257813-5.441406 11.171875-11.703124 11.03125zm51.808593-254.875c-.015625.234375-.015625.46875-.007812.707031v96.148438c0 5.800781-4.699219 10.5-10.5 10.5-5.796875 0-10.5-4.699219-10.5-10.5v-21l.105469-3.238281h-.105469v-40.25h-14v43.265625l.1875 6.734375h-71.386719l-.507812-9.960938-.300782-.246093v-39.792969h-13.992187v64.007812c0 5.859375-4.164063 10.992188-9.667969 10.992188h-.191406c-5.683594-.136719-10.207032-4.816407-10.140625-10.5v-96.160157c-.019531-.238281-.054688-.472656-.097657-.707031-.097656-.78125-.152343-1.566406-.160156-2.355469.011719-6.734374 2.707032-13.1875 7.488282-17.933593 4.78125-4.742188 11.253906-7.386719 17.988281-7.34375h9.941406l-9.84375 19.835937c-1.367187 2.75-.734375 6.074219 1.550781 8.128906l9.164063 8.359376-1.445313 10.292968c-.359375 2.585938.753906 5.15625 2.882813 6.664063l28.890625 20.484375c.152344.109375.320312.1875.476562.28125.132813.078125.261719.164062.402344.234375.203125.097656.410156.1875.621094.265625.132812.050781.265625.117187.398437.160156.238281.070312.480469.128906.722657.175781.113281.023438.226562.058594.34375.078125.359374.058594.722656.085938 1.085937.085938.351563 0 .703125-.027344 1.046875-.078125.113281-.019531.222656-.054688.332031-.074219.238281-.042969.46875-.097656.699219-.167969.132812-.039062.261719-.097656.390625-.148437.199219-.074219.402344-.148438.601563-.246094.136718-.066406.265624-.148438.398437-.226562.132813-.074219.289063-.148438.425781-.242188l30.601563-20.488281c2.480469-1.660157 3.636719-4.714844 2.875-7.601563l-2.601563-9.875 8.773438-8.046875c2.238281-1.96875 2.898437-5.1875 1.617187-7.878906l-9.355469-19.972656h9.394532c.855468-.074219 1.710937-.105469 2.566406-.085938 6.710938.628907 12.894531 3.90625 17.179688 9.109375 4.285156 5.203125 6.320312 11.902344 5.652343 18.609375zm42.949219-2.355469c0 1.226563.042969 2.222657.042969 3.394532v63.753906c-4 1.699219-7.582031 3.351562-11.5 4.941406-.496094.167969-1 .292969-1.515625.382813-.550782-.078125-1.09375-.207031-1.621094-.390625-4.890625-1.9375-9.359375-3.976563-14.359375-6.085938v-62.597656c1.53125-11.136719-1.996094-22.375-9.625-30.636719-7.625-8.261719-18.542969-12.679687-29.769531-12.039062h-17.886719c-.960937-1-2.015625-.601563-3.101563-.539063-.804687.042969-1.574218-.460937-2.296874.539063h-42.960938c-.675781-1-1.402344-.472657-2.15625-.53125-1.132812-.089844-2.238281-.46875-3.242188.53125h-9.476562c-14.90625-30-20.066406-61.738281-14.507812-90.660157 4.046874-21.363281 13.421874-39.375 27.121093-51.882812 13.523438-12.363281 31.238281-19.121094 49.558594-18.914062 22.410156 0 46.011719 9.101562 70.144531 27.101562 2.460938 1.828125 5.824219 1.84375 8.300782.039062 23.777343-17.257812 47.921874-26.386718 69.816406-26.386718 18.875 0 36.042968 6.492187 49.648437 18.78125 13.714844 12.390625 23.210938 30.292968 27.449219 51.300781 5.597656 28.855469.351562 60.625-14.761719 90.625h-83.6875c-21.78125-.085937-39.515625 17.492187-39.613281 39.273437zm25.230469 92.300782c-.226563.011718-.578125.027344-.8125.027344-5.683594.007812-10.308594-4.566407-10.375-10.246094v-79.019532c0-.238281.101562-.46875.082031-.703124-.066406-.78125-.089844-1.570313-.070312-2.355469.03125-6.746094 2.742187-13.199219 7.535156-17.945313 4.792968-4.742187 11.28125-7.382812 18.023437-7.335937h90.390625c.855469-.078125 1.714844-.105469 2.574219-.085938 6.699219.671875 12.855469 3.984375 17.105469 9.207031 4.25 5.222657 6.242187 11.925782 5.539062 18.621094-.023437.234375-.179687.359375-.179687.601563v79c.066406 2.769531-1.019531 5.445312-2.996094 7.386719-1.976563 1.945312-4.671875 2.980468-7.441406 2.867187-3.042969-.132813-5.847657-1.679687-7.582031-4.183594-1.347657-1.890625-2.042969-4.167969-1.980469-6.484375v-68.441406c-.0625-5.1875-2.671875-10.007812-6.980469-12.898438-4.304688-2.886718-9.757812-3.472656-14.582031-1.5625l-24.898438 9.925782c-2.414062.964844-5.105469.964844-7.519531 0l-24.933594-9.925782c-4.746094-1.917968-10.140625-1.332031-14.367187 1.5625-4.25 2.910157-6.769531 7.746094-6.71875 12.898438v68.378906c-.039063 2.375-.84375 4.667969-2.289063 6.550782-1.777344 2.421874-4.527344 3.941406-7.523437 4.164062zm78.363281 165.421875h-37.410156c-3.089844-.175781-6-1.523438-8.132813-3.765625-.246093-.242188-.480469-.234375-.707031-1.234375h55.101562c-1.964843 3-5.265624 4.867187-8.851562 5zm52.589844-22.675781c-1.941406 2.414062-4.902344 3.773437-8 3.675781h-126.769532c-3.09375.109375-6.058593-1.25-7.996093-3.667969-1.9375-2.414062-2.617188-5.605469-1.835938-8.601562l27.484375-108.730469h91.382813l27.566406 108.726562c.777344 2.992188.101563 6.179688-1.832031 8.597657zm0 0"/></g></svg>