<?xml version="1.0" encoding="utf-8"?>
<!-- Generator: Adobe Illustrator 19.0.0, SVG Export Plug-In . SVG Version: 6.00 Build 0)  -->
<svg version="1.1" id="Layer_1" xmlns="http://www.w3.org/2000/svg" xmlns:xlink="http://www.w3.org/1999/xlink" x="0px" y="0px"
	 viewBox="0 0 950 700" style="enable-background:new 0 0 950 700;" xml:space="preserve">
<style type="text/css">
	.st0{fill:#FFFFFF;stroke:#000000;stroke-miterlimit:10;}
	.st1{fill:none;stroke:#F7931E;stroke-width:5;stroke-miterlimit:10;}
	.st2{fill:#6E1D6B;}
	.st3{font-family:'EdwardianScriptITC';}
	.st4{font-size:436.7155px;}
	.st5{fill:#FBB03B;stroke:#662D91;stroke-width:4;stroke-miterlimit:10;}
	.st6{fill:#4D226D;}
	.st7{font-family:'Century';}
	.st8{font-size:161.0312px;}
	.st9{fill:none;}
	.st10{fill:none;stroke:#000000;stroke-miterlimit:10;}
	.st11{font-size:327.536px;}
</style>
<path id="XMLID_2_" class="st0" d="M431.8,179.9"/>
<g id="XMLID_1_">
	<path id="XMLID_4_" class="st1" d="M317.4,103.8c-24-16.7-52.2-27.9-83.2-31.7C132,59.7,38.9,133.2,26.3,236.3
		S86.2,433,188.3,445.4s195.2-61.1,207.9-164.2c7.8-63.4-16.6-123.2-60.4-162.7"/>
	<text id="XMLID_10_" transform="matrix(0.7821 0 0 1 0 392.1319)" class="st2 st3 st4">E</text>
	<polygon id="XMLID_7_" class="st5" points="366.3,89.5 361.6,111.2 332.8,104.4 319.7,78.4 340.4,69.2 	"/>
	<path id="XMLID_8_" class="st6" d="M196.1,379.6"/>
	<text id="XMLID_9_" transform="matrix(0.4846 0 0 1 63.8623 653.4191)" class="st7 st8">“we capture dreams”</text>
	<path id="XMLID_12_" class="st9" d="M435.7,302.9c0.8,1,1.7,1.9,2.6,2.9"/>
	<path id="XMLID_13_" class="st9" d="M450.7,315.9c1.5,0.9,4,2.3,5.3,2.9"/>
	<path id="XMLID_14_" class="st9" d="M437.6,305c1.2,1.3,2.8,2.9,4.1,4.1"/>
	<path id="XMLID_15_" class="st9" d="M434.8,301.9c0.5,0.7,1.5,1.8,2.8,3.3"/>
	<path id="XMLID_16_" class="st9" d="M447.7,313.9c5,3.1,9.7,5.5,10.7,5.9"/>
	<path id="XMLID_17_" class="st9" d="M464.7,322.1"/>
	<path id="XMLID_18_" class="st9" d="M447.2,300.9c-0.9-1.1-1.8-2.2-2.6-3.3"/>
	<g id="XMLID_23_">
		<g id="XMLID_57_">
			<path id="XMLID_31_" class="st10" d="M495,285.3"/>
		</g>
	</g>
	<text id="XMLID_11_" transform="matrix(1.071 0 0 1 388.5801 340.4571)" class="st2 st3 st11">spouse</text>
</g>
</svg>
